<svg width="513" height="280" viewBox="0 0 513 280" fill="none" xmlns="http://www.w3.org/2000/svg">
<path d="M342.721 145.703C323.434 149.858 280.451 143.959 262.826 87.1198" stroke="white" stroke-width="10.6401"/>
<path d="M261.49 76.3591L268.158 79.1214L270.921 85.7901L268.158 92.4588L261.49 95.2211L254.821 92.4588L252.059 85.7901L254.821 79.1214L261.49 76.3591Z" fill="white"/>
<path d="M379.963 194.364C345.545 200.199 292.571 223.232 356.025 268.679" stroke="white" stroke-width="15.7206"/>
<path d="M444.629 194.721C410.21 200.557 357.237 223.59 420.691 269.036" stroke="white" stroke-width="15.7206"/>
<g filter="url(#filter0_n_133_258)">
<path d="M311.249 169.773L292.589 111.99L306.251 63.7701L330.912 33.2766L373.05 6.11623L395.43 39.935L393.79 5.13851L464.932 20.0299L506.21 72.5888L507.851 107.385L469.702 121.193L508.6 123.286L469.941 194.856L409.532 221.492L348.453 204.509L311.249 169.773Z" fill="url(#paint0_radial_133_258)"/>
</g>
<path d="M296.362 32.2954L334.781 51.6219" stroke="white" stroke-width="15.7206"/>
<path d="M394.258 31L356.733 52.0095" stroke="white" stroke-width="15.7206"/>
<path d="M326.144 76.9614L331.082 88.8804L326.144 100.798L314.227 105.736L302.308 100.798L297.37 88.8804L302.308 76.9614L314.227 72.0239L326.144 76.9614Z" stroke="white" stroke-width="7.14571"/>
<path d="M386.883 76.9614L391.82 88.8804L386.883 100.798L374.965 105.736L363.046 100.798L358.109 88.8804L363.046 76.9614L374.965 72.0239L386.883 76.9614Z" stroke="white" stroke-width="7.14571"/>
<g filter="url(#filter1_n_133_258)">
<path d="M377.792 279.914L328.13 279.809C332.428 274.697 331.544 266.445 346.394 259.84C359.983 253.794 376.747 267.168 377.792 279.914Z" fill="url(#paint1_linear_133_258)"/>
</g>
<g filter="url(#filter2_n_133_258)">
<path d="M449.44 279.914L399.778 279.809C404.076 274.697 403.193 266.445 418.042 259.84C431.631 253.794 448.395 267.168 449.44 279.914Z" fill="url(#paint2_linear_133_258)"/>
</g>
<path d="M447.154 130.042C443.989 149.517 422.821 187.387 363.469 183.071" stroke="white" stroke-width="10.6401"/>
<path d="M363.538 173.086L370.206 175.848L372.969 182.517L370.206 189.186L363.538 191.948L356.869 189.186L354.107 182.517L356.869 175.848L363.538 173.086Z" fill="white"/>
<path d="M170.279 145.703C189.566 149.858 232.549 143.959 250.174 87.1198" stroke="white" stroke-width="10.6401"/>
<path d="M251.51 76.3591L244.842 79.1214L242.079 85.7901L244.842 92.4588L251.51 95.2211L258.179 92.4588L260.941 85.7901L258.179 79.1214L251.51 76.3591Z" fill="white"/>
<path d="M133.037 194.364C167.455 200.199 220.429 223.232 156.975 268.679" stroke="white" stroke-width="15.7206"/>
<path d="M68.371 194.721C102.79 200.557 155.763 223.59 92.3091 269.036" stroke="white" stroke-width="15.7206"/>
<g filter="url(#filter3_n_133_258)">
<path d="M201.751 169.773L220.411 111.99L206.749 63.7701L182.089 33.2766L139.95 6.11623L117.57 39.935L119.21 5.13851L48.0676 20.0299L6.78984 72.5888L5.14944 107.385L43.2985 121.193L4.39985 123.286L43.0592 194.856L103.468 221.492L164.547 204.509L201.751 169.773Z" fill="url(#paint3_radial_133_258)"/>
</g>
<path d="M216.638 32.2954L178.219 51.6219" stroke="white" stroke-width="15.7206"/>
<path d="M118.742 31L156.267 52.0095" stroke="white" stroke-width="15.7206"/>
<path d="M186.856 76.9614L181.918 88.8804L186.856 100.798L198.774 105.736L210.693 100.798L215.63 88.8804L210.693 76.9614L198.774 72.0239L186.856 76.9614Z" stroke="white" stroke-width="7.14571"/>
<path d="M126.117 76.9614L121.18 88.8804L126.117 100.798L138.035 105.736L149.954 100.798L154.892 88.8804L149.954 76.9614L138.035 72.0239L126.117 76.9614Z" stroke="white" stroke-width="7.14571"/>
<g filter="url(#filter4_n_133_258)">
<path d="M135.208 279.914L184.87 279.809C180.572 274.697 181.456 266.445 166.607 259.84C153.017 253.794 136.253 267.168 135.208 279.914Z" fill="url(#paint4_linear_133_258)"/>
</g>
<g filter="url(#filter5_n_133_258)">
<path d="M63.5597 279.914L113.222 279.809C108.924 274.697 109.808 266.445 94.9585 259.84C81.3689 253.794 64.6047 267.168 63.5597 279.914Z" fill="url(#paint5_linear_133_258)"/>
</g>
<path d="M70.8548 128.246C51.2922 125.679 12.7913 105.68 15.2887 46.2232" stroke="white" stroke-width="10.6401"/>
<path d="M25.271 45.9866L22.7141 52.7368L16.1331 55.7019L9.38296 53.1451L6.41783 46.564L8.97466 39.8139L15.5557 36.8488L22.3058 39.4056L25.271 45.9866Z" fill="white"/>
<defs>
<filter id="filter0_n_133_258" x="292.589" y="5.13843" width="216.011" height="216.353" filterUnits="userSpaceOnUse" color-interpolation-filters="sRGB">
<feFlood flood-opacity="0" result="BackgroundImageFix"/>
<feBlend mode="normal" in="SourceGraphic" in2="BackgroundImageFix" result="shape"/>
<feTurbulence type="fractalNoise" baseFrequency="0.54183757305145264 0.54183757305145264" stitchTiles="stitch" numOctaves="3" result="noise" seed="8746" />
<feColorMatrix in="noise" type="luminanceToAlpha" result="alphaNoise" />
<feComponentTransfer in="alphaNoise" result="coloredNoise1">
<feFuncA type="discrete" tableValues="1 1 1 1 1 1 1 1 1 1 1 1 1 1 1 1 1 1 1 1 1 1 1 1 1 1 1 1 1 1 1 1 1 1 1 1 1 1 1 1 1 1 1 1 1 1 1 1 1 1 1 0 0 0 0 0 0 0 0 0 0 0 0 0 0 0 0 0 0 0 0 0 0 0 0 0 0 0 0 0 0 0 0 0 0 0 0 0 0 0 0 0 0 0 0 0 0 0 0 0 "/>
</feComponentTransfer>
<feComposite operator="in" in2="shape" in="coloredNoise1" result="noise1Clipped" />
<feFlood flood-color="rgba(103, 137, 236, 0.25)" result="color1Flood" />
<feComposite operator="in" in2="noise1Clipped" in="color1Flood" result="color1" />
<feMerge result="effect1_noise_133_258">
<feMergeNode in="shape" />
<feMergeNode in="color1" />
</feMerge>
</filter>
<filter id="filter1_n_133_258" x="328.13" y="258.342" width="49.6626" height="21.5723" filterUnits="userSpaceOnUse" color-interpolation-filters="sRGB">
<feFlood flood-opacity="0" result="BackgroundImageFix"/>
<feBlend mode="normal" in="SourceGraphic" in2="BackgroundImageFix" result="shape"/>
<feTurbulence type="fractalNoise" baseFrequency="0.56526124477386475 0.56526124477386475" stitchTiles="stitch" numOctaves="3" result="noise" seed="8184" />
<feColorMatrix in="noise" type="luminanceToAlpha" result="alphaNoise" />
<feComponentTransfer in="alphaNoise" result="coloredNoise1">
<feFuncA type="discrete" tableValues="1 1 1 1 1 1 1 1 1 1 1 1 1 1 1 1 1 1 1 1 1 1 1 1 1 1 1 1 1 1 1 1 1 1 1 1 1 1 1 1 1 1 1 1 1 1 1 1 1 1 1 0 0 0 0 0 0 0 0 0 0 0 0 0 0 0 0 0 0 0 0 0 0 0 0 0 0 0 0 0 0 0 0 0 0 0 0 0 0 0 0 0 0 0 0 0 0 0 0 0 "/>
</feComponentTransfer>
<feComposite operator="in" in2="shape" in="coloredNoise1" result="noise1Clipped" />
<feFlood flood-color="rgba(103, 137, 236, 0.25)" result="color1Flood" />
<feComposite operator="in" in2="noise1Clipped" in="color1Flood" result="color1" />
<feMerge result="effect1_noise_133_258">
<feMergeNode in="shape" />
<feMergeNode in="color1" />
</feMerge>
</filter>
<filter id="filter2_n_133_258" x="399.778" y="258.342" width="49.6626" height="21.5723" filterUnits="userSpaceOnUse" color-interpolation-filters="sRGB">
<feFlood flood-opacity="0" result="BackgroundImageFix"/>
<feBlend mode="normal" in="SourceGraphic" in2="BackgroundImageFix" result="shape"/>
<feTurbulence type="fractalNoise" baseFrequency="0.56526124477386475 0.56526124477386475" stitchTiles="stitch" numOctaves="3" result="noise" seed="8184" />
<feColorMatrix in="noise" type="luminanceToAlpha" result="alphaNoise" />
<feComponentTransfer in="alphaNoise" result="coloredNoise1">
<feFuncA type="discrete" tableValues="1 1 1 1 1 1 1 1 1 1 1 1 1 1 1 1 1 1 1 1 1 1 1 1 1 1 1 1 1 1 1 1 1 1 1 1 1 1 1 1 1 1 1 1 1 1 1 1 1 1 1 0 0 0 0 0 0 0 0 0 0 0 0 0 0 0 0 0 0 0 0 0 0 0 0 0 0 0 0 0 0 0 0 0 0 0 0 0 0 0 0 0 0 0 0 0 0 0 0 0 "/>
</feComponentTransfer>
<feComposite operator="in" in2="shape" in="coloredNoise1" result="noise1Clipped" />
<feFlood flood-color="rgba(103, 137, 236, 0.25)" result="color1Flood" />
<feComposite operator="in" in2="noise1Clipped" in="color1Flood" result="color1" />
<feMerge result="effect1_noise_133_258">
<feMergeNode in="shape" />
<feMergeNode in="color1" />
</feMerge>
</filter>
<filter id="filter3_n_133_258" x="4.39984" y="5.13843" width="216.011" height="216.353" filterUnits="userSpaceOnUse" color-interpolation-filters="sRGB">
<feFlood flood-opacity="0" result="BackgroundImageFix"/>
<feBlend mode="normal" in="SourceGraphic" in2="BackgroundImageFix" result="shape"/>
<feTurbulence type="fractalNoise" baseFrequency="0.54183757305145264 0.54183757305145264" stitchTiles="stitch" numOctaves="3" result="noise" seed="8746" />
<feColorMatrix in="noise" type="luminanceToAlpha" result="alphaNoise" />
<feComponentTransfer in="alphaNoise" result="coloredNoise1">
<feFuncA type="discrete" tableValues="1 1 1 1 1 1 1 1 1 1 1 1 1 1 1 1 1 1 1 1 1 1 1 1 1 1 1 1 1 1 1 1 1 1 1 1 1 1 1 1 1 1 1 1 1 1 1 1 1 1 1 0 0 0 0 0 0 0 0 0 0 0 0 0 0 0 0 0 0 0 0 0 0 0 0 0 0 0 0 0 0 0 0 0 0 0 0 0 0 0 0 0 0 0 0 0 0 0 0 0 "/>
</feComponentTransfer>
<feComposite operator="in" in2="shape" in="coloredNoise1" result="noise1Clipped" />
<feFlood flood-color="rgba(103, 137, 236, 0.25)" result="color1Flood" />
<feComposite operator="in" in2="noise1Clipped" in="color1Flood" result="color1" />
<feMerge result="effect1_noise_133_258">
<feMergeNode in="shape" />
<feMergeNode in="color1" />
</feMerge>
</filter>
<filter id="filter4_n_133_258" x="135.208" y="258.342" width="49.6626" height="21.5723" filterUnits="userSpaceOnUse" color-interpolation-filters="sRGB">
<feFlood flood-opacity="0" result="BackgroundImageFix"/>
<feBlend mode="normal" in="SourceGraphic" in2="BackgroundImageFix" result="shape"/>
<feTurbulence type="fractalNoise" baseFrequency="0.56526124477386475 0.56526124477386475" stitchTiles="stitch" numOctaves="3" result="noise" seed="8184" />
<feColorMatrix in="noise" type="luminanceToAlpha" result="alphaNoise" />
<feComponentTransfer in="alphaNoise" result="coloredNoise1">
<feFuncA type="discrete" tableValues="1 1 1 1 1 1 1 1 1 1 1 1 1 1 1 1 1 1 1 1 1 1 1 1 1 1 1 1 1 1 1 1 1 1 1 1 1 1 1 1 1 1 1 1 1 1 1 1 1 1 1 0 0 0 0 0 0 0 0 0 0 0 0 0 0 0 0 0 0 0 0 0 0 0 0 0 0 0 0 0 0 0 0 0 0 0 0 0 0 0 0 0 0 0 0 0 0 0 0 0 "/>
</feComponentTransfer>
<feComposite operator="in" in2="shape" in="coloredNoise1" result="noise1Clipped" />
<feFlood flood-color="rgba(103, 137, 236, 0.25)" result="color1Flood" />
<feComposite operator="in" in2="noise1Clipped" in="color1Flood" result="color1" />
<feMerge result="effect1_noise_133_258">
<feMergeNode in="shape" />
<feMergeNode in="color1" />
</feMerge>
</filter>
<filter id="filter5_n_133_258" x="63.5597" y="258.342" width="49.6626" height="21.5723" filterUnits="userSpaceOnUse" color-interpolation-filters="sRGB">
<feFlood flood-opacity="0" result="BackgroundImageFix"/>
<feBlend mode="normal" in="SourceGraphic" in2="BackgroundImageFix" result="shape"/>
<feTurbulence type="fractalNoise" baseFrequency="0.56526124477386475 0.56526124477386475" stitchTiles="stitch" numOctaves="3" result="noise" seed="8184" />
<feColorMatrix in="noise" type="luminanceToAlpha" result="alphaNoise" />
<feComponentTransfer in="alphaNoise" result="coloredNoise1">
<feFuncA type="discrete" tableValues="1 1 1 1 1 1 1 1 1 1 1 1 1 1 1 1 1 1 1 1 1 1 1 1 1 1 1 1 1 1 1 1 1 1 1 1 1 1 1 1 1 1 1 1 1 1 1 1 1 1 1 0 0 0 0 0 0 0 0 0 0 0 0 0 0 0 0 0 0 0 0 0 0 0 0 0 0 0 0 0 0 0 0 0 0 0 0 0 0 0 0 0 0 0 0 0 0 0 0 0 "/>
</feComponentTransfer>
<feComposite operator="in" in2="shape" in="coloredNoise1" result="noise1Clipped" />
<feFlood flood-color="rgba(103, 137, 236, 0.25)" result="color1Flood" />
<feComposite operator="in" in2="noise1Clipped" in="color1Flood" result="color1" />
<feMerge result="effect1_noise_133_258">
<feMergeNode in="shape" />
<feMergeNode in="color1" />
</feMerge>
</filter>
<radialGradient id="paint0_radial_133_258" cx="0" cy="0" r="1" gradientUnits="userSpaceOnUse" gradientTransform="translate(347.764 97.1232) rotate(47.5041) scale(265.011 263.038)">
<stop offset="0.0744325" stop-color="#6789EC"/>
<stop offset="0.496291"/>
<stop offset="0.942305" stop-color="#337A66"/>
</radialGradient>
<linearGradient id="paint1_linear_133_258" x1="353.006" y1="258.34" x2="360.398" y2="287.512" gradientUnits="userSpaceOnUse">
<stop stop-color="#5976CB"/>
<stop offset="1" stop-color="#080A10"/>
</linearGradient>
<linearGradient id="paint2_linear_133_258" x1="424.655" y1="258.34" x2="432.046" y2="287.512" gradientUnits="userSpaceOnUse">
<stop stop-color="#5976CB"/>
<stop offset="1" stop-color="#080A10"/>
</linearGradient>
<radialGradient id="paint3_radial_133_258" cx="0" cy="0" r="1" gradientUnits="userSpaceOnUse" gradientTransform="translate(165.236 97.1232) rotate(132.496) scale(265.011 263.038)">
<stop offset="0.0744325" stop-color="#6789EC"/>
<stop offset="0.496291"/>
<stop offset="0.942305" stop-color="#337A66"/>
</radialGradient>
<linearGradient id="paint4_linear_133_258" x1="159.994" y1="258.34" x2="152.602" y2="287.512" gradientUnits="userSpaceOnUse">
<stop stop-color="#5976CB"/>
<stop offset="1" stop-color="#080A10"/>
</linearGradient>
<linearGradient id="paint5_linear_133_258" x1="88.3456" y1="258.34" x2="80.9539" y2="287.512" gradientUnits="userSpaceOnUse">
<stop stop-color="#5976CB"/>
<stop offset="1" stop-color="#080A10"/>
</linearGradient>
</defs>
</svg>
