<svg width="412" height="360" viewBox="0 0 412 360" fill="none" xmlns="http://www.w3.org/2000/svg">
<path d="M239.172 159.073C260.661 165.055 309.563 161.276 333.262 98.312" stroke="white" stroke-width="12.0288"/>
<path d="M335.491 86.2574L327.78 88.9281L324.216 96.2689L326.886 103.98L334.227 107.544L341.938 104.873L345.502 97.5324L342.831 89.8215L335.491 86.2574Z" fill="white"/>
<path d="M235.39 246.375C274.854 246.837 349.982 243.78 378.544 258.009" stroke="white" stroke-width="17.7725"/>
<path d="M139.473 258.061C178.87 256.386 134.017 289.434 68.0921 335.106" stroke="white" stroke-width="17.7725"/>
<g filter="url(#filter0_n_73_2725)">
<path d="M284.35 206.825L295.024 139.014L271.283 87.5673L238.38 57.8516L186.544 34.9329L167.5 76.637L163.211 37.4894L86.3815 66.6342L49.5302 132.591L53.8194 171.738L98.8515 180.448L55.7794 189.627L111.542 262.753L183.69 281.872L248.912 252.162L284.35 206.825Z" fill="url(#paint0_radial_73_2725)"/>
</g>
<path d="M276.791 50.6812L237.285 79.0225" stroke="white" stroke-width="17.7725"/>
<path d="M167.237 66.4561L212.839 83.3173" stroke="white" stroke-width="17.7725"/>
<path d="M251.389 105.801L247.972 119.979L255.582 132.42L269.76 135.838L282.201 128.227L285.619 114.049L278.008 101.608L263.83 98.1907L251.389 105.801Z" stroke="white" stroke-width="8.07839"/>
<path d="M183.559 116.486L180.142 130.664L187.752 143.105L201.93 146.522L214.371 138.912L217.789 124.734L210.178 112.293L196 108.875L183.559 116.486Z" stroke="white" stroke-width="8.07839"/>
<path d="M146.063 191.029C123.776 191.956 77.0218 177.133 68.2947 110.426" stroke="white" stroke-width="12.0288"/>
<path d="M79.3679 108.23L77.8266 116.243L71.0705 120.82L63.057 119.278L58.4805 112.522L60.0218 104.509L66.778 99.9324L74.7914 101.474L79.3679 108.23Z" fill="white"/>
<g filter="url(#filter1_n_73_2725)">
<path d="M356.66 279.517L402.884 247.649C395.607 245.633 391.152 237.377 373.085 240.719C356.55 243.777 349.48 266.968 356.66 279.517Z" fill="url(#paint1_linear_73_2725)"/>
</g>
<g filter="url(#filter2_n_73_2725)">
<path d="M42.5879 327.681L92.9321 352.535C91.1487 345.198 96.1907 337.285 84.4735 323.133C73.75 310.181 50.0518 315.299 42.5879 327.681Z" fill="url(#paint2_linear_73_2725)"/>
</g>
<defs>
<filter id="filter0_n_73_2725" x="49.5302" y="34.9331" width="245.493" height="246.938" filterUnits="userSpaceOnUse" color-interpolation-filters="sRGB">
<feFlood flood-opacity="0" result="BackgroundImageFix"/>
<feBlend mode="normal" in="SourceGraphic" in2="BackgroundImageFix" result="shape"/>
<feTurbulence type="fractalNoise" baseFrequency="0.47928068041801453 0.47928068041801453" stitchTiles="stitch" numOctaves="3" result="noise" seed="8746" />
<feColorMatrix in="noise" type="luminanceToAlpha" result="alphaNoise" />
<feComponentTransfer in="alphaNoise" result="coloredNoise1">
<feFuncA type="discrete" tableValues="1 1 1 1 1 1 1 1 1 1 1 1 1 1 1 1 1 1 1 1 1 1 1 1 1 1 1 1 1 1 1 1 1 1 1 1 1 1 1 1 1 1 1 1 1 1 1 1 1 1 1 0 0 0 0 0 0 0 0 0 0 0 0 0 0 0 0 0 0 0 0 0 0 0 0 0 0 0 0 0 0 0 0 0 0 0 0 0 0 0 0 0 0 0 0 0 0 0 0 0 "/>
</feComponentTransfer>
<feComposite operator="in" in2="shape" in="coloredNoise1" result="noise1Clipped" />
<feFlood flood-color="rgba(103, 137, 236, 0.25)" result="color1Flood" />
<feComposite operator="in" in2="noise1Clipped" in="color1Flood" result="color1" />
<feMerge result="effect1_noise_73_2725">
<feMergeNode in="shape" />
<feMergeNode in="color1" />
</feMerge>
</filter>
<filter id="filter1_n_73_2725" x="353.865" y="239.932" width="49.0188" height="39.585" filterUnits="userSpaceOnUse" color-interpolation-filters="sRGB">
<feFlood flood-opacity="0" result="BackgroundImageFix"/>
<feBlend mode="normal" in="SourceGraphic" in2="BackgroundImageFix" result="shape"/>
<feTurbulence type="fractalNoise" baseFrequency="0.5 0.5" stitchTiles="stitch" numOctaves="3" result="noise" seed="8184" />
<feColorMatrix in="noise" type="luminanceToAlpha" result="alphaNoise" />
<feComponentTransfer in="alphaNoise" result="coloredNoise1">
<feFuncA type="discrete" tableValues="1 1 1 1 1 1 1 1 1 1 1 1 1 1 1 1 1 1 1 1 1 1 1 1 1 1 1 1 1 1 1 1 1 1 1 1 1 1 1 1 1 1 1 1 1 1 1 1 1 1 1 0 0 0 0 0 0 0 0 0 0 0 0 0 0 0 0 0 0 0 0 0 0 0 0 0 0 0 0 0 0 0 0 0 0 0 0 0 0 0 0 0 0 0 0 0 0 0 0 0 "/>
</feComponentTransfer>
<feComposite operator="in" in2="shape" in="coloredNoise1" result="noise1Clipped" />
<feFlood flood-color="rgba(103, 137, 236, 0.25)" result="color1Flood" />
<feComposite operator="in" in2="noise1Clipped" in="color1Flood" result="color1" />
<feMerge result="effect1_noise_73_2725">
<feMergeNode in="shape" />
<feMergeNode in="color1" />
</feMerge>
</filter>
<filter id="filter2_n_73_2725" x="42.5879" y="315.57" width="50.3442" height="36.9644" filterUnits="userSpaceOnUse" color-interpolation-filters="sRGB">
<feFlood flood-opacity="0" result="BackgroundImageFix"/>
<feBlend mode="normal" in="SourceGraphic" in2="BackgroundImageFix" result="shape"/>
<feTurbulence type="fractalNoise" baseFrequency="0.5 0.5" stitchTiles="stitch" numOctaves="3" result="noise" seed="8184" />
<feColorMatrix in="noise" type="luminanceToAlpha" result="alphaNoise" />
<feComponentTransfer in="alphaNoise" result="coloredNoise1">
<feFuncA type="discrete" tableValues="1 1 1 1 1 1 1 1 1 1 1 1 1 1 1 1 1 1 1 1 1 1 1 1 1 1 1 1 1 1 1 1 1 1 1 1 1 1 1 1 1 1 1 1 1 1 1 1 1 1 1 0 0 0 0 0 0 0 0 0 0 0 0 0 0 0 0 0 0 0 0 0 0 0 0 0 0 0 0 0 0 0 0 0 0 0 0 0 0 0 0 0 0 0 0 0 0 0 0 0 "/>
</feComponentTransfer>
<feComposite operator="in" in2="shape" in="coloredNoise1" result="noise1Clipped" />
<feFlood flood-color="rgba(103, 137, 236, 0.25)" result="color1Flood" />
<feComposite operator="in" in2="noise1Clipped" in="color1Flood" result="color1" />
<feMerge result="effect1_noise_73_2725">
<feMergeNode in="shape" />
<feMergeNode in="color1" />
</feMerge>
</filter>
<radialGradient id="paint0_radial_73_2725" cx="0" cy="0" r="1" gradientUnits="userSpaceOnUse" gradientTransform="translate(230.792 132.117) rotate(123.544) scale(299.601 297.37)">
<stop offset="0.0744325" stop-color="#6789EC"/>
<stop offset="0.496291"/>
<stop offset="0.942305" stop-color="#337A66"/>
</radialGradient>
<linearGradient id="paint1_linear_73_2725" x1="365.962" y1="243.552" x2="377.734" y2="275.472" gradientUnits="userSpaceOnUse">
<stop stop-color="#5976CB"/>
<stop offset="1" stop-color="#080A10"/>
</linearGradient>
<linearGradient id="paint2_linear_73_2725" x1="78.5302" y1="318.291" x2="56.3837" y2="344.118" gradientUnits="userSpaceOnUse">
<stop stop-color="#5976CB"/>
<stop offset="1" stop-color="#080A10"/>
</linearGradient>
</defs>
</svg>
