<svg width="246" height="253" viewBox="0 0 246 253" fill="none" xmlns="http://www.w3.org/2000/svg">
<path d="M187.195 112.954C208.212 113.581 238.671 82.9725 229.104 30.2366" stroke="white" stroke-width="9.58295"/>
<path d="M220.169 31.258L223.283 36.9646L229.521 38.7976L235.227 35.6834L237.06 29.4462L233.946 23.7396L227.709 21.9066L222.002 25.0208L220.169 31.258Z" fill="white"/>
<path d="M119.819 175.052C150.818 180.308 198.529 201.053 141.379 241.984" stroke="white" stroke-width="14.1587"/>
<path d="M61.578 175.375C92.5769 180.63 140.287 201.375 83.1378 242.306" stroke="white" stroke-width="14.1587"/>
<g filter="url(#filter0_n_115_740)">
<path d="M181.706 152.905L198.512 100.864L186.207 57.4345L163.997 29.9707L126.045 5.50876L105.888 35.9675L107.366 4.62818L43.2916 18.0401L6.11486 65.3771L4.63744 96.7164L38.9963 109.153L3.96233 111.037L38.7808 175.497L93.1876 199.486L148.198 184.191L181.706 152.905Z" fill="url(#paint0_radial_115_740)"/>
</g>
<path d="M195.114 29.0859L160.512 46.4923" stroke="white" stroke-width="14.1587"/>
<path d="M106.944 27.9194L140.742 46.8416" stroke="white" stroke-width="14.1587"/>
<path d="M113.587 69.3145L109.141 80.0498L113.587 90.7832L124.32 95.2295L135.056 90.7832L139.502 80.0498L135.056 69.3145L124.32 64.8682L113.587 69.3145Z" stroke="white" stroke-width="6.43576"/>
<g filter="url(#filter1_n_115_740)">
<path d="M121.774 252.103L166.503 252.009C162.632 247.405 163.427 239.973 150.054 234.023C137.814 228.579 122.716 240.624 121.774 252.103Z" fill="url(#paint1_linear_115_740)"/>
</g>
<g filter="url(#filter2_n_115_740)">
<path d="M57.2446 252.103L101.973 252.009C98.1018 247.405 98.8976 239.973 85.5238 234.023C73.2844 228.579 58.1857 240.624 57.2446 252.103Z" fill="url(#paint2_linear_115_740)"/>
</g>
<path d="M83.3997 101.997C62.4511 100.189 35.7346 66.2653 51.3339 14.989" stroke="white" stroke-width="9.58295"/>
<path d="M60.091 17.0366L56.338 22.3449L49.9306 23.4445L44.6224 19.6915L43.5227 13.2841L47.2758 7.97587L53.6831 6.8762L58.9914 10.6293L60.091 17.0366Z" fill="white"/>
<path d="M167.5 83.0005L181.5 75.0005H191.5L199.5 83.0005" stroke="white" stroke-width="6.44"/>
<defs>
<filter id="filter0_n_115_740" x="3.9624" y="4.62842" width="194.55" height="194.858" filterUnits="userSpaceOnUse" color-interpolation-filters="sRGB">
<feFlood flood-opacity="0" result="BackgroundImageFix"/>
<feBlend mode="normal" in="SourceGraphic" in2="BackgroundImageFix" result="shape"/>
<feTurbulence type="fractalNoise" baseFrequency="0.60160946846008301 0.60160946846008301" stitchTiles="stitch" numOctaves="3" result="noise" seed="8746" />
<feColorMatrix in="noise" type="luminanceToAlpha" result="alphaNoise" />
<feComponentTransfer in="alphaNoise" result="coloredNoise1">
<feFuncA type="discrete" tableValues="1 1 1 1 1 1 1 1 1 1 1 1 1 1 1 1 1 1 1 1 1 1 1 1 1 1 1 1 1 1 1 1 1 1 1 1 1 1 1 1 1 1 1 1 1 1 1 1 1 1 1 0 0 0 0 0 0 0 0 0 0 0 0 0 0 0 0 0 0 0 0 0 0 0 0 0 0 0 0 0 0 0 0 0 0 0 0 0 0 0 0 0 0 0 0 0 0 0 0 0 "/>
</feComponentTransfer>
<feComposite operator="in" in2="shape" in="coloredNoise1" result="noise1Clipped" />
<feFlood flood-color="rgba(103, 137, 236, 0.25)" result="color1Flood" />
<feComposite operator="in" in2="noise1Clipped" in="color1Flood" result="color1" />
<feMerge result="effect1_noise_115_740">
<feMergeNode in="shape" />
<feMergeNode in="color1" />
</feMerge>
</filter>
<filter id="filter1_n_115_740" x="121.774" y="232.674" width="44.7285" height="19.4287" filterUnits="userSpaceOnUse" color-interpolation-filters="sRGB">
<feFlood flood-opacity="0" result="BackgroundImageFix"/>
<feBlend mode="normal" in="SourceGraphic" in2="BackgroundImageFix" result="shape"/>
<feTurbulence type="fractalNoise" baseFrequency="0.62761706113815308 0.62761706113815308" stitchTiles="stitch" numOctaves="3" result="noise" seed="8184" />
<feColorMatrix in="noise" type="luminanceToAlpha" result="alphaNoise" />
<feComponentTransfer in="alphaNoise" result="coloredNoise1">
<feFuncA type="discrete" tableValues="1 1 1 1 1 1 1 1 1 1 1 1 1 1 1 1 1 1 1 1 1 1 1 1 1 1 1 1 1 1 1 1 1 1 1 1 1 1 1 1 1 1 1 1 1 1 1 1 1 1 1 0 0 0 0 0 0 0 0 0 0 0 0 0 0 0 0 0 0 0 0 0 0 0 0 0 0 0 0 0 0 0 0 0 0 0 0 0 0 0 0 0 0 0 0 0 0 0 0 0 "/>
</feComponentTransfer>
<feComposite operator="in" in2="shape" in="coloredNoise1" result="noise1Clipped" />
<feFlood flood-color="rgba(103, 137, 236, 0.25)" result="color1Flood" />
<feComposite operator="in" in2="noise1Clipped" in="color1Flood" result="color1" />
<feMerge result="effect1_noise_115_740">
<feMergeNode in="shape" />
<feMergeNode in="color1" />
</feMerge>
</filter>
<filter id="filter2_n_115_740" x="57.2446" y="232.674" width="44.7285" height="19.4287" filterUnits="userSpaceOnUse" color-interpolation-filters="sRGB">
<feFlood flood-opacity="0" result="BackgroundImageFix"/>
<feBlend mode="normal" in="SourceGraphic" in2="BackgroundImageFix" result="shape"/>
<feTurbulence type="fractalNoise" baseFrequency="0.62761706113815308 0.62761706113815308" stitchTiles="stitch" numOctaves="3" result="noise" seed="8184" />
<feColorMatrix in="noise" type="luminanceToAlpha" result="alphaNoise" />
<feComponentTransfer in="alphaNoise" result="coloredNoise1">
<feFuncA type="discrete" tableValues="1 1 1 1 1 1 1 1 1 1 1 1 1 1 1 1 1 1 1 1 1 1 1 1 1 1 1 1 1 1 1 1 1 1 1 1 1 1 1 1 1 1 1 1 1 1 1 1 1 1 1 0 0 0 0 0 0 0 0 0 0 0 0 0 0 0 0 0 0 0 0 0 0 0 0 0 0 0 0 0 0 0 0 0 0 0 0 0 0 0 0 0 0 0 0 0 0 0 0 0 "/>
</feComponentTransfer>
<feComposite operator="in" in2="shape" in="coloredNoise1" result="noise1Clipped" />
<feFlood flood-color="rgba(103, 137, 236, 0.25)" result="color1Flood" />
<feComposite operator="in" in2="noise1Clipped" in="color1Flood" result="color1" />
<feMerge result="effect1_noise_115_740">
<feMergeNode in="shape" />
<feMergeNode in="color1" />
</feMerge>
</filter>
<radialGradient id="paint0_radial_115_740" cx="0" cy="0" r="1" gradientUnits="userSpaceOnUse" gradientTransform="translate(148.819 87.4739) rotate(132.496) scale(238.682 236.904)">
<stop offset="0.0744325" stop-color="#6789EC"/>
<stop offset="0.496291"/>
<stop offset="0.942305" stop-color="#337A66"/>
</radialGradient>
<linearGradient id="paint1_linear_115_740" x1="144.098" y1="232.673" x2="137.44" y2="258.947" gradientUnits="userSpaceOnUse">
<stop stop-color="#5976CB"/>
<stop offset="1" stop-color="#080A10"/>
</linearGradient>
<linearGradient id="paint2_linear_115_740" x1="79.5679" y1="232.673" x2="72.9106" y2="258.947" gradientUnits="userSpaceOnUse">
<stop stop-color="#5976CB"/>
<stop offset="1" stop-color="#080A10"/>
</linearGradient>
</defs>
</svg>
