<svg width="13" height="444" viewBox="0 0 13 444" fill="none" xmlns="http://www.w3.org/2000/svg">
<path d="M6.5 443C9.53756 443 12 440.538 12 437.5L12 311.5C12 308.462 9.53758 306 6.50002 306C3.46245 306 1.00001 308.462 1.00001 311.5L0.999995 437.5C0.999995 440.538 3.46243 443 6.5 443Z" fill="#E4E4E7" fill-opacity="0.25"/>
<path d="M6.5 443C9.53756 443 12 440.538 12 437.5L12 311.5C12 308.462 9.53758 306 6.50002 306C3.46245 306 1.00001 308.462 1.00001 311.5L0.999995 437.5C0.999995 440.538 3.46243 443 6.5 443Z" stroke="white" stroke-opacity="0.25"/>
<path d="M6.5 290C9.53756 290 12 287.538 12 284.5L12 158.5C12 155.462 9.53758 153 6.50002 153C3.46245 153 1.00001 155.462 1.00001 158.5L0.999995 284.5C0.999995 287.538 3.46243 290 6.5 290Z" fill="#E4E4E7" fill-opacity="0.25"/>
<path d="M6.5 290C9.53756 290 12 287.538 12 284.5L12 158.5C12 155.462 9.53758 153 6.50002 153C3.46245 153 1.00001 155.462 1.00001 158.5L0.999995 284.5C0.999995 287.538 3.46243 290 6.5 290Z" stroke="white" stroke-opacity="0.25"/>
<path d="M6.5 137C9.53756 137 12 134.538 12 131.5L12 5.5C12 2.46243 9.53758 8.13587e-07 6.50002 4.15258e-07C3.46245 1.69295e-08 1.00001 2.46243 1.00001 5.5L0.999995 131.5C0.999995 134.538 3.46243 137 6.5 137Z" fill="url(#paint0_linear_73_1947)"/>
<defs>
<linearGradient id="paint0_linear_73_1947" x1="6.50005" y1="-4.19885e-06" x2="6.4993" y2="137" gradientUnits="userSpaceOnUse">
<stop stop-color="#6ADDBC"/>
<stop offset="1" stop-color="#3C846F"/>
</linearGradient>
</defs>
</svg>
